<mxfile host="app.diagrams.net" modified="2022-10-31T12:47:54.292Z" agent="5.0 (Windows NT 10.0; Win64; x64) AppleWebKit/537.36 (KHTML, like Gecko) Chrome/107.0.0.0 Safari/537.36 Edg/107.0.1418.26" etag="IJXC75FOp5sYL0haDo1i" version="20.5.1" type="github">
  <diagram name="Page-1" id="e7e014a7-5840-1c2e-5031-d8a46d1fe8dd">
    <mxGraphModel dx="1022" dy="1289" grid="1" gridSize="10" guides="1" tooltips="1" connect="1" arrows="1" fold="1" page="1" pageScale="1" pageWidth="1169" pageHeight="826" background="none" math="0" shadow="0">
      <root>
        <mxCell id="0" />
        <mxCell id="1" parent="0" />
        <mxCell id="r8EwskITpqRyOmD14gY6-63" value="Student" style="swimlane;childLayout=stackLayout;horizontal=1;startSize=30;horizontalStack=0;rounded=1;fontSize=14;fontStyle=0;strokeWidth=2;resizeParent=0;resizeLast=1;shadow=0;dashed=0;align=center;fillColor=#3333FF;" vertex="1" parent="1">
          <mxGeometry x="110" y="-730" width="200" height="150" as="geometry" />
        </mxCell>
        <mxCell id="r8EwskITpqRyOmD14gY6-64" value="firstName (string)&#xa;&#xa;lastName(string)&#xa;&#xa;email (varchar)&#xa;&#xa;dateRegistered (date Time)" style="align=left;strokeColor=none;fillColor=none;spacingLeft=4;fontSize=12;verticalAlign=top;resizable=0;rotatable=0;part=1;" vertex="1" parent="r8EwskITpqRyOmD14gY6-63">
          <mxGeometry y="30" width="200" height="120" as="geometry" />
        </mxCell>
        <mxCell id="r8EwskITpqRyOmD14gY6-65" value="Course" style="swimlane;childLayout=stackLayout;horizontal=1;startSize=30;horizontalStack=0;rounded=1;fontSize=14;fontStyle=0;strokeWidth=2;resizeParent=0;resizeLast=1;shadow=0;dashed=0;align=center;fillColor=#3333FF;" vertex="1" parent="1">
          <mxGeometry x="730" y="-720" width="200" height="150" as="geometry" />
        </mxCell>
        <mxCell id="r8EwskITpqRyOmD14gY6-66" value="title (string)&#xa;&#xa;price (float)&#xa;&#xa;instructor (string)&#xa;&#xa;tags (string)" style="align=left;strokeColor=none;fillColor=none;spacingLeft=4;fontSize=12;verticalAlign=top;resizable=0;rotatable=0;part=1;" vertex="1" parent="r8EwskITpqRyOmD14gY6-65">
          <mxGeometry y="30" width="200" height="120" as="geometry" />
        </mxCell>
        <mxCell id="r8EwskITpqRyOmD14gY6-69" value="enrollment" style="swimlane;childLayout=stackLayout;horizontal=1;startSize=30;horizontalStack=0;rounded=1;fontSize=14;fontStyle=0;strokeWidth=2;resizeParent=0;resizeLast=1;shadow=0;dashed=0;align=center;fillColor=#3333FF;" vertex="1" parent="1">
          <mxGeometry x="420" y="-530" width="200" height="150" as="geometry" />
        </mxCell>
        <mxCell id="r8EwskITpqRyOmD14gY6-70" value="dateEnrollement (date Time)&#xa;&#xa;price (float)" style="align=left;strokeColor=none;fillColor=none;spacingLeft=4;fontSize=12;verticalAlign=top;resizable=0;rotatable=0;part=1;" vertex="1" parent="r8EwskITpqRyOmD14gY6-69">
          <mxGeometry y="30" width="200" height="120" as="geometry" />
        </mxCell>
        <mxCell id="r8EwskITpqRyOmD14gY6-71" value="" style="edgeStyle=entityRelationEdgeStyle;fontSize=12;html=1;endArrow=ERoneToMany;rounded=0;entryX=0;entryY=0.417;entryDx=0;entryDy=0;entryPerimeter=0;" edge="1" parent="1" target="r8EwskITpqRyOmD14gY6-70">
          <mxGeometry width="100" height="100" relative="1" as="geometry">
            <mxPoint x="310" y="-620" as="sourcePoint" />
            <mxPoint x="410" y="-720" as="targetPoint" />
          </mxGeometry>
        </mxCell>
        <mxCell id="r8EwskITpqRyOmD14gY6-77" value="" style="edgeStyle=entityRelationEdgeStyle;fontSize=12;html=1;endArrow=ERoneToMany;rounded=0;" edge="1" parent="1" source="r8EwskITpqRyOmD14gY6-66" target="r8EwskITpqRyOmD14gY6-70">
          <mxGeometry width="100" height="100" relative="1" as="geometry">
            <mxPoint x="940" y="-570" as="sourcePoint" />
            <mxPoint x="660" y="-420" as="targetPoint" />
          </mxGeometry>
        </mxCell>
      </root>
    </mxGraphModel>
  </diagram>
</mxfile>
